<mxfile host="app.diagrams.net" modified="2024-07-10T06:54:43.129Z" agent="Mozilla/5.0 (Windows NT 10.0; Win64; x64) AppleWebKit/537.36 (KHTML, like Gecko) Chrome/126.0.0.0 Safari/537.36" etag="upVfnccICSRxobg4ofdz" version="24.6.4" type="github">
  <diagram name="第 1 页" id="ZNOsRtFlWW2Wcgrf3gi9">
    <mxGraphModel dx="1434" dy="746" grid="1" gridSize="10" guides="1" tooltips="1" connect="1" arrows="1" fold="1" page="1" pageScale="1" pageWidth="827" pageHeight="1169" math="0" shadow="0">
      <root>
        <mxCell id="0" />
        <mxCell id="1" parent="0" />
        <mxCell id="c-XZTNxwqpBs0ZEyccTJ-2" value="本地gitlab&lt;div&gt;c# 源码&lt;/div&gt;" style="text;html=1;align=center;verticalAlign=middle;whiteSpace=wrap;rounded=0;" vertex="1" parent="1">
          <mxGeometry x="130" y="265" width="60" height="30" as="geometry" />
        </mxCell>
        <mxCell id="c-XZTNxwqpBs0ZEyccTJ-3" value="" style="shape=curlyBracket;whiteSpace=wrap;html=1;rounded=1;labelPosition=left;verticalLabelPosition=middle;align=right;verticalAlign=middle;" vertex="1" parent="1">
          <mxGeometry x="190" y="220" width="20" height="120" as="geometry" />
        </mxCell>
        <mxCell id="c-XZTNxwqpBs0ZEyccTJ-5" value="dev" style="text;html=1;align=center;verticalAlign=middle;whiteSpace=wrap;rounded=0;" vertex="1" parent="1">
          <mxGeometry x="210" y="310" width="60" height="30" as="geometry" />
        </mxCell>
        <mxCell id="c-XZTNxwqpBs0ZEyccTJ-4" value="main" style="text;html=1;align=center;verticalAlign=middle;whiteSpace=wrap;rounded=0;" vertex="1" parent="1">
          <mxGeometry x="210" y="210" width="60" height="30" as="geometry" />
        </mxCell>
        <mxCell id="c-XZTNxwqpBs0ZEyccTJ-9" value="" style="endArrow=classic;html=1;rounded=0;exitX=1;exitY=0.5;exitDx=0;exitDy=0;" edge="1" parent="1" source="c-XZTNxwqpBs0ZEyccTJ-4">
          <mxGeometry width="50" height="50" relative="1" as="geometry">
            <mxPoint x="310" y="224.5" as="sourcePoint" />
            <mxPoint x="440" y="225" as="targetPoint" />
          </mxGeometry>
        </mxCell>
        <mxCell id="c-XZTNxwqpBs0ZEyccTJ-10" value="线上gitlab&lt;div&gt;c# 编译后的代码&lt;/div&gt;" style="text;html=1;align=center;verticalAlign=middle;whiteSpace=wrap;rounded=0;" vertex="1" parent="1">
          <mxGeometry x="440" y="265" width="70" height="35" as="geometry" />
        </mxCell>
        <mxCell id="c-XZTNxwqpBs0ZEyccTJ-11" value="" style="shape=curlyBracket;whiteSpace=wrap;html=1;rounded=1;labelPosition=left;verticalLabelPosition=middle;align=right;verticalAlign=middle;" vertex="1" parent="1">
          <mxGeometry x="510" y="220" width="20" height="120" as="geometry" />
        </mxCell>
        <mxCell id="c-XZTNxwqpBs0ZEyccTJ-12" value="dev" style="text;html=1;align=center;verticalAlign=middle;whiteSpace=wrap;rounded=0;" vertex="1" parent="1">
          <mxGeometry x="530" y="310" width="60" height="30" as="geometry" />
        </mxCell>
        <mxCell id="c-XZTNxwqpBs0ZEyccTJ-13" value="main" style="text;html=1;align=center;verticalAlign=middle;whiteSpace=wrap;rounded=0;" vertex="1" parent="1">
          <mxGeometry x="530" y="215" width="60" height="20" as="geometry" />
        </mxCell>
        <mxCell id="c-XZTNxwqpBs0ZEyccTJ-15" value="本地main分支源码，编译好后提交到线上gitlab的main分支，正式更新使用此分支" style="text;html=1;align=center;verticalAlign=middle;whiteSpace=wrap;rounded=0;" vertex="1" parent="1">
          <mxGeometry x="260" y="160" width="170" height="60" as="geometry" />
        </mxCell>
        <mxCell id="c-XZTNxwqpBs0ZEyccTJ-34" value="" style="endArrow=classic;html=1;rounded=0;exitX=1;exitY=0.5;exitDx=0;exitDy=0;" edge="1" parent="1">
          <mxGeometry width="50" height="50" relative="1" as="geometry">
            <mxPoint x="270" y="330" as="sourcePoint" />
            <mxPoint x="440" y="330" as="targetPoint" />
          </mxGeometry>
        </mxCell>
        <mxCell id="c-XZTNxwqpBs0ZEyccTJ-35" value="本地dev分支源码，编译好后提交到线上gitlab的dev分支，内网游戏服更新使用此分支" style="text;html=1;align=center;verticalAlign=middle;whiteSpace=wrap;rounded=0;" vertex="1" parent="1">
          <mxGeometry x="260" y="340" width="170" height="50" as="geometry" />
        </mxCell>
        <mxCell id="c-XZTNxwqpBs0ZEyccTJ-41" value="改造前" style="text;strokeColor=none;fillColor=none;html=1;fontSize=24;fontStyle=1;verticalAlign=middle;align=center;" vertex="1" parent="1">
          <mxGeometry x="120" y="80" width="100" height="40" as="geometry" />
        </mxCell>
        <mxCell id="c-XZTNxwqpBs0ZEyccTJ-42" value="改造后" style="text;strokeColor=none;fillColor=none;html=1;fontSize=24;fontStyle=1;verticalAlign=middle;align=center;" vertex="1" parent="1">
          <mxGeometry x="120" y="1060" width="100" height="40" as="geometry" />
        </mxCell>
        <mxCell id="c-XZTNxwqpBs0ZEyccTJ-46" value="&lt;h1 style=&quot;margin-top: 0px;&quot;&gt;操作&lt;/h1&gt;&lt;p&gt;后端操作：平时正常基于本地dev分支开发，到线上更新前，主程把本地dev分支代码合并到main分支，然后编译代码提交到线上gitlab&amp;nbsp; main分支。&lt;/p&gt;&lt;p&gt;运维操作：在中控机上克隆线上git仓库；执行sh game_build.sh commit_id 生成更新包&lt;/p&gt;" style="text;html=1;whiteSpace=wrap;overflow=hidden;rounded=0;" vertex="1" parent="1">
          <mxGeometry x="130" y="440" width="580" height="120" as="geometry" />
        </mxCell>
        <mxCell id="c-XZTNxwqpBs0ZEyccTJ-47" value="" style="shape=image;verticalLabelPosition=bottom;labelBackgroundColor=default;verticalAlign=top;aspect=fixed;imageAspect=0;image=data:image/png,iVBORw0KGgoAAAANSUhEUgAAAiQAAAF/CAIAAAD2MEWOAAAgAElEQVR4Ae2dP48cR5L23/sKZ59xZayAhQieQUIakFhjtATlHAYiQHOk467BEaHBmQIB7kIQB6RBYCGHToPA0DiDzoDjcCyaWspYR2MJ+gL8Hi8iIiMzIjOruqq6u6b/PAOCXZWVGRH5y6p8OrOqK/9fgz8QAAEQAAEQWDGB/7di+zAPAiAAAiAAAg3EBicBCIAACIDAyglAbFaOGA5AAARAAAQgNjgHQAAEQAAEVk4AYrNyxHAAAiAAAiAAscE5AAIgAAIgsHICg8Tm6YPffv37b2//VImKD7172jRxo8zEh/51+l/lkXpKNBU36vnmpS5YfJ55HAcBEAABEJhHoCo2h//9r1//9/8ORTkePI82KP3vVbV4/vbvv/3zv/+nmS82da2KLsxGL5smf+smxKYVDQ6AAAiAwDQEqmJDvTOJzf+c/u9vv/YQGytCy+rZl2hzWSFN0yLwAgIgAAJbSKAQGxpP/Jr9+7d/+zeuuhUAw4KLqCZJz35KYyCyI8MdLhjMxlk4kbRTnpqLOdXsfJs6iqqZ1fjtYCsLSR3hEwRAAARAYPUECrFpGh7QcDdNPX7UhqZp6mLzp3f2Rg6LTRgPhfxaC5GcaNDmFIl6qjmbPjb/9E5N8Qjs73THqBphl6PoERsgAAIgAAKrIzBIbFgDqE83f9zR8w0eSXSywZrxT81dE5tgjUv96zTkHGDTOKXi4sJO/ekAqOpII8MnCIAACIDASgnUxEYHNP/1f/+UxwH+/d//XYIg8fBiQ3nc6MeJDR8dLDZ9bfJUm86Y0ZMLFKSMcsLcmp1GE430qrZStDAOAiAAAiCgBHKx4bFIds/mrWYuP5208GGXIrNhWqznyMZZaLWZps507BIHRlyGFUuk0RrkbZ9Tw8MnCIAACIDAqgjkYtM0DXXT/HxzMY4JPXX8oYwMXPiJ5xif6dmdHugtnzQMMjnl1zmsAX1tmqm2oCuZhCTvdUcxYmyAAAiAAAismkBFbFRjaCBibsakAYSKDY9U8p/dcM8eZrHinJtP/E2mvKoa0N+mPETAg7B3TylmEhvvKMRWdbRqsLAPAiAAAiCQCFTEJh3s3nJPJ3dn7X10FTZ7O0dGEAABEACBFRFYQGxWFBHMggAIgAAIbB0BiM3WNSkqBAIgAALrRwBis35tgohAAARAYOsIQGy2rklRIRAAARBYPwIQm/VrE0QEAiAAAltHAGKzdU2KCoEACIDA+hGA2KxfmyAiEAABENg6AhCbrWtSVAgEQAAE1o8AxGb92gQRgQAIgMDWEZhWbD5//mB2dufzraOICoEACIAACHQSqIpN9nrmTgM9D5LMvD/Wf/cPtFhIn+1pAj5BAARAAAS2j8AkYiOK8uRRczA7fvH8mlK89u2Zyg/ERqHgEwRAAAS2kUAuNuF1/fG1zb9V39ys6zFnb1n+7dc6ooPZ8ez9/YOG1OXJo5BHp9T2nrw/nkFs6uSQCgIgAALbQSAXG65VZRrtT+9UYNI6MWY5ALO6TIWLmUN78O2XWQaITQYEuyAAAiCwfQT6io2pOS8Po4vH6II3lMjbJ+eX/u8Dr9Zs9ObYPyMAsTFssQkCIAAC20mgt9jwSjN/j9NrJDY8snn3lMD0Wofm0f3Z2YMX/JjAi+cRJ8QmosAGCIAACGwrgX5ik6bO0nqdQWyi/IjqNC0jm6ZpaHAz22u+vEN6M4tAITYRBTZAAARAYFsJVMVGVlz+53//j9ba3JIJTxD867ThxAdpiKKZ2z7pMYHZnsynxccEmgZi0wYM6SAAAiCwNQTqYtPYx8x4yPKnd7+GObR3T2mbptFEkzQ9PbdWwOGn0fQp5/f6QNqj+/qzGz2UhjuFCSSAAAiAAAhsMIE2selRJX+fhkc8/+wo5p577siHQyAAAiAAAltHYLzYyHxanEbjoU+X2Ow9eV8+97x1PFEhEAABEACBCoHxYlNMo5l7PBVHSAIBEAABENhdAguJze5iQ81BAARAAASGEIDYDKGFvCAAAiAAAqMIQGxGYUMhEAABEACBIQQgNkNoIS8IgAAIgMAoAhCbUdhQCARAAARAYAgBiM0QWsgLAiAAAiAwigDEZhQ2FAIBEAABEBhCYJDYhMUF/muIA5vXrMwWf/6Z2ZSldOQVOLqCjjUxd/vhvY8XR788bF69PPp4cfjublbg7g8Hz17fzlI58c5hlnWx3aqjxUzWS0/mqO7epwaSvRf5nj74oR6zGt347s6z1wfy7/grX3neC/krR2wSvSHw7M7nNkneVEvvRE+Lpvvjg/bCMrhmYdxBxTlzVvcWA3OuuJZSSN49AsPF5rdRGtA08uLOv4eXQ0fSLDa5zcrqbbHAnA099b9/evjx4t6rLPe149cHj7/7JEud20FIF1PtXDJTult3pEeX+DmZo14xM8mD3qCuIHiOMP+20VG3ao06zod555Jb2MnqCr8N3bygttH3o/dW7rIW/PpBZ7PM05FSrXuRv/uKK7IjYWcJDBKbhShlr7fptLWA2Nzd/50HNDWx4T7izmFx9c7rIJqOzqVajzZH1cyLJE7maJEg28peSfDc1gPEphp8x/nQeS7FV54fzI6zMQcf8mOasBhHcbpWQ6on0ivVM0f1jAukdl1xC5hF0a0jUIqNncii6Sxef9MmxpGNrM55+iAsaTPndTWF2FRtCuBSbEzmf52OnMej79HPfrgW21C+uOmsSJhGs4n0DX3vxmOdNtGcoavKc0a7Tbejg2ecMy/+1e1nr28f0yzfwePvblCorw+OOad0bew9U8rJHKW6NU2QXqVx8OynGzd8YhzZUB1/unHIleJ62THl1QTP2G8f6myYDHMlUSZXeZtOBoM9H6uVYsOlwvTas9dtU7L8+vP7B03lpbRebMIkmH0tehig2Helz1SHbCJNxMXm6iE2tprUpiNbM7rEBgi0ECjFJmZs6/Gd2Pz9t1/5XZycmdcdiOXTRrbKp1uMoPTS6LJs0ZHNw9Nu+VxcctWxRb156jVCn8KXa+xfmq9ua0f5yeFP6e5O2bm05ST/3hGXFZFgm3wxV4pzqcfffaL5ObN2eRIVx2m+lU/mqIVqiSVLCV0wC3yoVzR1RcFXQ7JgeTupRVYjCT9LDEWycynWNG2YObT8pbRebLhIZWSz90QFRkyRAnE2Gb5worXcQ2xidFml4rcKvSKaKrpYHBsgMIdAu9j4FQTYjO30dclO7ffnvvW5GNlIZJnNWqJZuk3f/vm26VgStFpl09HTcfe1OutfpLxNLK9D68PmbJrMEV+iIjCN244WQnHqfEmTyBflF7Hx1qSDDiX9IW+cbKrThR1FA9mGYyjHMlBcNVVHDv5xsHFlwVdDsom8PUhsHIeseIYsPQXAaziZZwRo0GN2qVxFbIw5Hs3Q8uq0oQJjtykvj5Ays8aG3XS1kAO9W9PawTYItBBoE5vsITEpnQmDG2SwlsRnzCrexotNOTD67W3FQWcSz4bF72hhckyn1EwHwZdcmjcLnU521bGnek6xnByFoYl0uPZ6LorXxSbLlubWpnPUwjVA05kcyZWB4jwqNtwEQWyy5lgdpSL4akg2MdRLC2Y1qlRTJlor55KaKD4f3Z+dPaDF0emGiqgFLWKb56uJTbYOIRXnbDLJptN0zlIaA7lkvxNq7WPI6m4pyemnXx28LeyBQJVAXWxEOdKy0KFol9jwyKZLA8aLjR/ZaDVOzi/93wdaPLTlz10njd6JyTsI/rqtD0bbTie76sLwpZYzd6TzYHqHQ3remqO62OQjgFi/yRxFj25DlKN4ri8D5YI0wzKXznal4NIpuZh5x7nWkGwibw8Z2QwWG+r9Z3s6cAkh9hnZONmIIxvRJJauWVwGN1jlkY2XMTn3/M2/xVqzhIwUEKgQqIkNd+7FM8rlrRQzsmktklyOF5smE7lks+dW5Voy3T33OHxT1/Ts0oPEO72cxzwz3ZKzzZGqmsZbK04uymm0lgfhJnOkEftPQ88faBcbU+RKgze6kkIKArMX7rfZO/xZjaS6PjHZkdt1trjHI3ukK7M9pxxhes0/jdbQHRc7t8ZFZMYsPEHw4nnDiVnB6LW8ZxNObPsDABN/LMgbvppyz6bybckXwh4ItBAoxUZ6dvlZJf9Pt/1ZV8JTZy2JevOmxVFTiE0Pm+RRRks+8zxfPga+ZvxXuTi4oRmz23elo9d7+/z92iSyNe6P5HEjvt6CRLnidUcpZ2fxFrFp5GZMmtkj75M58iDDnvRBOgo5kL7V8JFq0uDAJ0o/dcXBV0MK9/D8yeBztlWTnxjUHtydSxV22SSY/QVMXTN4+CLPpHFmlh8exDx5JEJCZzJpkvlnzJZiI/cC+WuNBLhga1ZqiSQQqBIoxaaarZpoRjbV42uSaO+UrDSkqiOfKF/qF43C2wzWfOJyHC0aKPfXQWPUlo9zjYPXgJf9SYMSowfBfF1sevj292nkiYBYrCI28djgjVprDjaCArtLYAfE5kobV77zxmk0HuWs5LbqZI6G4OzbPa1l8EMqOiTv3pP48JgtxoOYUoRsltq2zKfFaTQe5ZxpRvPsgCYt8Nm3NRdwgaLbTGDJYqM/8DSzcL/9us38etTNT6OZGz89yg7KsnRH+mNMM2MWfpHaM64B3dP6Bd+zjvVsY9Dx4GbEu9H8NFp40Dnc1Kk85FYPuEfqgNbsYQ1Zdo7AImKzc7BQYRAAARAAgXEEIDbjuKEUCIAACIDAAAIQmwGwkBUEQAAEQGAcAYjNOG4oBQIgAAIgMIAAxGYALGQFARAAARAYRwBiM44bSoEACIAACAwgALEZAAtZQQAEQAAExhGA2IzjhlIgAAIgAAIDCEBsBsBCVhAAARAAgXEEIDbjuKEUCIAACIDAAAIQmwGwkBUEQAAEQGAcAYjNOG4oBQIgAAIgMIAAxGYALGQFARAAARAYRwBiM44bSoEACIAACAwgALEZAAtZQQAEQAAExhGA2IzjhlIgAAIgAAIDCEBsBsBCVhAAARAAgXEEIDbjuKEUCIAACIDAAAIQmwGwkBUEQAAEQGAcAYjNOG4oBQIgAAIgMIAAxGYALGQFARAAARAYRwBiM44bSoEACIAACAwgALEZAAtZQQAEQAAExhGA2IzjhlIgAAIgAAIDCEBsBsBCVhAAARAAgXEEIDbjuKEUCIAACIDAAAIQmwGwkBUEQAAEQGAcgTax+eyXi6OPb/a/91a/f3r48eKI/x36I3aPy0q2l5/ZA7VtyXzvVe1Yn7ReIT289/Hi6JeHzauXRx8vDt/dNYY/f/5gdnbnc5NS33x0f/b++MXza/Wj81OvfXt2PHvP/840d2bzyzsvJMP749lsTzPVPztqlBW4u/97aLKj359+mh0ctctNNr9lR9lGIRAAgS0l0Ck2F14DpNua38sM6ow+ffemomp9afcMSbtmViatFMlM7Nzf3z/o9snCMFcD2myIryeP/PGqTZGcvmLjauStuz0GNUpsuIHcmTCofV0U2AEBENhZAm1iUwEiY4hfHlYO+aRBndFCYtM3JOpqaUCTuubY+x/MFhmv+Iq37smwZp6eSfF+YlPWqNU5H4DYdPPBURAAgRUTKMVGvsnKXJkOAjiIvj17s35iU0I8mB3PaDRDMpAGHHYiiwY9D779smlsYhxw0KDkwbfPaW6N/s2ZiCvEpmpToizFxmQePY9XEZuT88vLy/OTkk1MkRbXiVM+JWhcK+27T0NSmqCL05LmzAkTsJTz96f7NCXrckYP2AABENgVAqXYSM395AlPQxWdThujScRmWEhFqGYOjRUly9DW4zuxEbkKavTieWYi7LKq6d0aVqZc26JNKZG5trs87ZaK1x3WU0eJDZvyZwIlcfvyPTAVns+axmaLJ0A1Zz1ApIIACGw3gX5iwwxWM7Lhm/bz7wPVW6F3SLXiRm/yoYmOe0wx2+k3TeP6/b0nNLgxmfPNYmQjGTKbtUQOMsohO5rl1vvsV8SmT7HGq4gUiVqiwvNmv/H2+UGMe0aKTM6ebpENBEBguwhsiNi4cUya3FtIbKghH92fnT2QZ8DS0ISFJJ+wyoTBiQ1ryWrEphwYzdZSbFwDhTlYiM129RWoDQgsRODqxWaR8BcVGxo3zPbCXZnQiYtyFA9Dd4nN3AHHskY241n5kccQO3Z+TMrNH9mo/VpOPYZPEACBnSJw5WLD/VHxg56ebbCo2NC4YbYn82lyL8RuuyDaxaa1SCo/XmxUCOf87Ca5atmqiA0/IPDh9OuWEjG5+HFSVUJKTdKpszBHGho6msUGCIDAThEoxYY7Bf0ZID0U8GZfiPTu2W1nNBdm6IOyX4/OLTYwpMJeNj0V7rqLoqQf3xzT3BrPmJlf5FQS5920L8Smh03yKIMtn3mer6KqnFARm69PP1xeXvZQG30igE6G9DSa/FzXSog/c7py1mNEKgiAwBYTKMVm8coOEpvF3Y23QBowru/2DwiMj2CykhWxaWho00drJgsSjkAABLaXwE6Lzd4T+SXNiOZ1DwiMKD91kUxseAoNSjN1K8AfCOwwgZWJjUzEjX2mee1bpCI2+gNPMws3e3/1FWGZkd9IjXpdzdXXABGAAAhsAYFViM0WYEEVQAAEQAAElkkAYrNMmrAFAiAAAiBQJQCxqWJBIgiAAAiAwDIJQGyWSRO2QAAEQAAEqgQgNlUsSAQBEAABEFgmAYjNMmnCFgiAAAiAQJUAxKaKBYkgAAIgAALLJLAmYmPfejKneifnlR8jVhPnGJp3eBU2qz4nc1T13plIr7Qp11eTF91cVtZe6/O+tbrNzjBwEARAYOMJbJrYtPRUc/vruRnylmxxlGdbfH8yR2NC7QqudgxiM4YyyoDALhDYMLH5+vRD9W1ec7VkboassdscZdkW353M0ahQa4KihrqOaZ7a59hyNVtIAwEQ2BQC04mNvDTavzfFvydYXy/dzi6TDOq24p+KkEnkJLOvecPEkDmihdV15kheJabFLz9wtqL4yfnl+Wl4lfJJ+Mxz5nNSkznSmtGnCFyslMRE1YnR6Y58ZjmDKc1jdoVQtBJ8RW7WUd1msIUPEACBrSMwkdjUlicI92l4cYFe92yy3o26K+3XYp/99em5rtBC2aOIxAyxBdtySmccLTcNvx059ZPhSKU495/nJ5yfcpFPV5x6+RTSlI5irXmDwogvfFaMjq7uVHMGY5rH2c4Ss93COx2PbeQMYQcEQGC7CEwjNlZXlB8vJPzLQ9ntIza+4/J7pZZkXXk1g4bCIqC6xV/861ojh8rOMcSiPuwnS1UyzQJ0qn59HYyoLduROgyf3i+Hm9Vac+inFGRdirb8sappBmtZUi5Xzu1E09gAARDYOgITio1/A7Qf6/QQG+3CQxP4XiodpHTzp/18yhCbsCWn6IFZv5LzpZGNak1ZXH3YT+luTUA0ogghaD6NaGWO1IF+kiMFEwZuLRrgc/KeGvGioam+AKXyeI8AWHDRe5lfLeETBEBgqwhMKDZ+7eehYlPrmWOXFQWCejbt1FxvmBfnPrBfztRdmh6z5kh92E8XhD9zNFtKjf3ych0lB2HL9/AcRy+xCTmrVroS+Vgk5ry7nWADHyAAAltIYBqxaXgd+yOdNGOOss4KD3fkaFx/uoK50idR55XGG0FjUmIYUqgekYGoLeSgJWfpqExpK67qYT+lEzfjCK1cabZMWYojdWg+rSenAYEQpQlcm5O2LUJ7LBqvJvLRWNxlcTvRCjZAAAS2jsBEYtM0QW/kaTReyr5Jz6e9/Iz0pv1ptHqXJH0id4vxAWLKGf74yTAVm9DpyyFOrOasOop+pLR0uJXiVmToKQXa5xPG5NWB12SOamdsJR7KFpM/nNLDdEQpJlHVVWlcIh0octYTQ1tQ8bApDuJOLVakgQAIbAeB6cRmAV7aiy9gol/RmiPXN0rvKBLSz2Q912SOqu6zKlXzIBEEQAAElklgI8RmmRUebIvGNem7N3+rPx9spE+ByRx13EfqEyfygAAIgMBwAhCb+cz8NFoSnvklB+ZYuiO+9yKTf+l/zF0NbBZkBwEQWAIBiM0SIMIECIAACIBANwGITTcfHAUBEAABEFgCAYjNEiDCBAiAAAiAQDcBiE03HxwFARAAARBYAgGIzRIgwgQIgAAIgEA3AYhNNx8cBQEQAAEQWAIBiM0SIMIECIAACIBAN4ErFxv+bYm+CKU71vrR9OOUxX/Yv7qf1vevZv+cdR4Lpv75+q2z/S/4360+pvRdCMtEpzbn+89ynpwvcia1uBt4gmUhtRi9+uSxcfY/P/vnDDSykFbSmlcPfncjWEexyc65zsahE7rPzyz72Vxmj+nD7n/h9c/pPSxl7w/XT/e/OLv5x77GErC01bdse75+jeV+nEqrpJ40sqKdbLebH3Sk7wkWjC4TQz3OvnDqpTV1fJz9z8/+OTkqE9LKWlOrj8+rIHDlYlOp9IDLyZygFUMmqZ/N3uaM5W3alGHNP4ZojQ4llomuX2PRW3fUOzUC9230ogSbuGjrDKxWFtKi3mvle8KpFU1pE8SZnPXbykJaSWv2iwS5VkRgMrGJJ4+8N4WmvOhClj8dm6SUcGDesIWsauFAyNjgI2ZfjcYSJijuoSjv+UlMjfmq8H98q/Yufz79hrP8eH754dU337wK9Xp7QqkpAGcvehErdSBc+sPp1zGzM1EL64//cEOTP/zt1hdnt67/WYYs+1+cXv8Dl+J0mS67df3PaqgmNmxQJ9b+JqVDftvvtaFLtTcNZRKTMpjEJBg2Mau79U4BtTDiZFO02ka2lUycbiUKhdQ3pL6O6Gv8aViom962TZVnX/kJZh2HUy/UyxxJNTWJrkqCKnFvmtxR0zTV4JPF5MWCX+RM7tma2gj43EACE4kNXfFygvIJa89VSrD78mp+ekV/118672OPz0aSI+7k4yWVn8vhGonHxZdYlUTazg6bgL45/Zl0hVNo+/L8R7lEKRzeJsn5WRfllM7MVDPFyT7NEY477fcPSaKris2tU1IUEZibjW78lUpo/j/e1Fs1csNGJtNUq0zN4yZFNi/OVE3THDLZxXYSZJOT12bgE8C7iJ5pIzvUPvFChk2c1I2WbWS8h5DoI/vjymZ+bUzZoZ6ORCTPT+znh6apn2ClUIQTOTRECL7k0x5n3VE1eDGSVTOhowOWdNZGfDhcUinONpurmRS1GLA9NYFpxCadkNJL2E48O3erl1MrFWuYMvnpelYYKVuITX66czYXi9vJIjh5e3n5luRF/v5y+uHybRAbHeU0mihZvDUbdx6Jz+n23I46958qHiFVBOaWjEh44HKr4VGODnGav9784mz/pmQvRjZhAFSbWMticbu609ocMeaQUwtIemwsSnbdV14u7mtBe2ZlB8MudaN5G7XHaRuKDfQPqa8jra39bFpOsNrVUQ++b5wtjmrBB4BFW8UWoiO2AXxOt+d2MlXSdsMDAkpiSz6nERs6tcIpSZv2hKycaHrV9UCc9QXsx30fDTMS6cuyGs1KSrK7BNyOFgufJ29Th9U0UVdk8iHLWzHNle4HxEXhdrwb0Qk/OrnlBzFaoBzEtIpNI8qkZoNokaG8kVxoYYc+/J80R5bOX2LtKMnapnbiP3fS2BxarZ6flTbK4kkTWdVpNBmCUEzdIfV1pHWxnyQ2URHNCdYCPiAKH+acl5SuOFscVYJXvqFxwy6zk3EVbTpXZc44EnaHtObqAZ/bSWAasUnXZ36JFvMhlcupg3wmGe4UdsWK87ma1SW6HWesyb948tfDONOd5ZXdzFrsQ+cBceXcTtVNnBYLR8PUGc+YaQE/stFU+ixGNulgEDN9UK2bZ4izHi5VPfZJ1ZyFcTkpUqlahhRq91alG63HyWayE8yZdhUpQ+rrSEvaz7YTrHJ1dAQfou2MMxvZXMWZrBV3cLGzfQQmEZvO66E8SCmxN+pGnvcFVDSO6m3R0mYtK6XVv3xZW7RN91TtPRvZrvQvWrC/aZfTD/z8ITXtPqvTaDed2Lh7Nq5wh9iEIY6ITSUOl6Q79JmABlemzfg4Z0iJkla0PyWHRNqMreTir+2QZZu91kbss2oyxVXanhNSX0fa19rPthMs3IxxdNqDDyF3x3nVZzJFV0VfAkfKZhOYRGxkNsKM9fli4YvEJJpTzhzqPg8rfYEpa75BywgqeFObNmsMSQ/6br7SyuYZHn4ioGVkY52wf3bAXWCqfPSekkIXScV7h2Ru+IeAayMbOsSaFJ4xSz+sKcTGZ9Pn1lxMwZFLMzu0Gf+kkzRJ/BiWVC8SOT/Rp2BNRiMYxnilVYokthsJ6nNWRTbnS+KkPPkJ5rLFhqmGVBMb93BiGNRakaHHImifw6ucYJxuYgj1MinhnHcp3XG6p9EmP5Or6IrWQcI2EJhEbLITinYX/7X/JtPfbCDaO15NC1yt92qd1zCkqeJc9EzeFHRVnkgcRmASsfFfD+n8vDwfFuaW5QaQLWvQna0OzuSdbfrhFZ9EbPJpNDOpMTzi7ShBF2n6A5DtaNVdrAXO5F1s9VF1nkhsRsWGQiAAAiAAAltCAGKzJQ2JaoAACIDAOhOA2Kxz6yA2EAABENgSAhCbLWlIVAMEQAAE1pkAxGadWwexgQAIgMCWEIDYbElDohogAAIgsM4EIDbr3DqIDQRAAAS2hMCViw0/pp9eD7IlWE01speVmSODN9nUretzyn3+/MHs7M7nc3LhMAiAAAhMSWAdxeZqX2GxbO8Tig3JzPtj/Xf/QE+kkD7b0wR8ggAIgMDEBK5cbCr1XXZ3X3HRkbRs71OJjSjKk0fNwez4xfNrWsNr356p/EBsFAo+QQAEJicwmdj4t1rwizj5JWn8zhZ9XUtKia9y0UMlGXmrLq2+zH9vTySLsZHKmsT4ClxZwUwKc06bKfhPFkr/PVNEbK7/7ZYstxzXH+P08N5lWQKA39B86/qfeb2Zs/0vdDFNm/OLs7ZptIPZ8ez9/YOG1MOpuFYAACAASURBVOXJoxCcTqntPXl/PIPY9GwyZAMBEFg+gYnEhqRGOm7u0W0fTgl2X96xzkvQd1e3ukx6csRakt5p7134l8dTCPG20UpGNvtf8MrKaZTz15u6xoxIC60TI2Jz65Te5B+WBghrAYR3+3PxNrExc2gPvv0yQwexyYBgFwRAYGIC04iNkQCjAVLVhcQmLp37l9MPl29Zp4yqsG7oEiImnRzXV26vrIS4aIMkgYnK4U1GCRGBCUMfXlrmVsNLOLNQ6SI0bWLTNI3Rm2P/jADExjPHHgiAwNQEphEbM5xxowiq7SJio2tlKjX2E2bA5KNtPfbOnHGUo3ZrnywDZ24erBFt8IktYuOKy+RYGM3YVTX9amZRlmrxhLRH92dnD17wYwIvnsd8EJuIAhsgAAJXQmAaseEFD1UEsq582WKTjWAyqjTGogBKr5pxJdNospqyrI9567pbYjkm6tTZQmJDg5vZXvPlHdKbmdapgdhEFNgAARC4EgKTiE17z14d2VD2TJFqbGrL7lLR7A6QLxptt+aMOXzB0Xu1kQ3fp5H7/zJ24dv+lZGNlaW/3uRHDDqm0ZqGHkWbzfZkPi0+JtBAbEY3HwqCAAgsh8AkYpMvniZSwt29DnfoM41JzKGUmFe4JjZ6g0bNsmYZa21ewsrt4sLkb/eeR9O6XxObpgnKsf/F2c0/0jZJSE1smiaokctZc8ZPo+lTzu/1gbRH9/VnN3ooDXdqVpAGAiAAAishMInYUO9tum3a/bCS2uy8Uffc887TAAAQAIH1ITCJ2NiH0eSJgMvz9UGwTZHsPXlfPve8TRVEXUAABDaUwCRik0+jmVHOhmJD2CAAAiAAAkMITCQ2Q0JCXhAAARAAgW0jALHZthZFfUAABEBgDQlAbNawURASCIAACGwbAYjNtrUo6gMCIAACa0gAYrOGjYKQQAAEQGDbCEBstq1FUR8QAAEQWEMCEJs1bBSEBAIgAALbRmBKsfnsl4ujj2/2v/cMv396+PHiiP8d+iN2j1/6Iq9YDi+11Ffu54m2lN+mN4ad3fk8JsZXuaz3qmK6lppZTq0J70zjuusaa7Fe4za4dV5+Nq4wSoEACIBAN4HJxebi3isb0d393y+OPs7v4+wbxmL5amI8ajbcQi+0nKX5kxckZ4nm+Ko2b3x359nrA/5353Bvrhfz7s6Ut5qYDndsffruzdFH1xYQmw5cOAQCILAogSnFphKrDGt+eVg55JOqulJN9OXikmJPHtEbkV88v1YcD2uOmXckl1mWncJKIxrzyeFPB89e3+kY1bHzqq5UE3vFCrHphQmZQAAElkVgGrGRrk3mytzIZgqx4dch3z9oWl9SyRmGv1LMVCrNDfL4IMwK0pxhvZ2uHb8+ePaD6t5Xt5+9PnhczxlTq7pSSaT30Nm3nkYDccPMW0qLyMhSRjb7POI5+nhx+O6ulCirSTl/f7pPk6L0L+aMHrABAiAAAjmBacRGvPpv0w/v6a0a2+Xl8el+dRBTTdQS8dPMoWWKQvIjb+AfPKyxdYkTULwRhCdsxyjsxt6Nx68PHn/3Caex8Lw+eGYzVLYruhLu3Ph7NvPFho3b+MUbB3xxxKPMWCObLSZWc1ZCRhIIgAAIRAJXJzYcwhQjmziTFlZ2Sc8IsNiMejqAbzX9/vRT4fjqJd3/aFg+dUqQe+SWkY0MZb775O4PPIG2x3oTm6S+0Vds6qWLVKsicjBqSdM0Gny1mnI03GbTnIUDJIAACICAJbAbYkM1fnR/dvaAFkt+f/zieUAg61paHtVtNwjjaUCXEqYHvXB29cI8sqGpMzu4qXpOiVciNrVqBimC2KS2wRYIgMB8AjsjNjSZNttr5NmzhVer9F/5BXN/sWl4KPPTjRtSUGbV5rTVlYhNrZoQmzkthcMgAAI1AjsjNjKIkfs3eodm7wkNdPyT0DVIlbRyGqppuGuWx7h5Yq39AYGGJ9AOjr8iy7x9O9yOr7iSpL5iw/dseDXsVlN8gCO09/Zr02hNrZqYRusmi6MgAAI1AtOIDXdk8Rkt/mmnBONHA7UAQ1r1WYBqYmGEHzYLDwLM3h+r0jRNs4DY6I2NWCmeVpLq0IMPL/mxrpZ7Nhyi6A3/zmau0jTVZwGqibTm9uVlD7URzZD4Kfiq2FSr2ZazII8EEAABEFAC04iNehv/WdWVamLdR+tzz/Xsi6dyj9wlNgNd9B3ZNDS06aM1A/0jOwiAAAgsQmBXxGbvyfvsuedFqPUoexViw1NoUJoerYMsIAACUxPYKLHJX4PGI5s8cWqCLf6WJzY8pjnLXoNWTWwJBckgAAIgcOUENkVsrhwUAgABEAABEBhPAGIznh1KggAIgAAI9CQAsekJCtlAAARAAATGE4DYjGeHkiAAAiAAAj0JQGx6gkI2EAABEACB8QQgNuPZoSQIgAAIgEBPAhCbnqCQDQRAAARAYDyBrRSbvu8HG4+tXpJeFXN+Uj12VSGFYP58/Zb8Uuds/1Y1vvVI5B9O3br+5/WIZroodHGK4oV1DS8jmxbFCCHpEk3zXuv36D6/41xX6RtcobTg0+xMC2c2w6rq/DqoOat1BGvZarkddVeXoz6v+IobFfOWF9oVsTk5n+CX9esqNvIL0Jt/XPG5/Ie/3fribP/mX8e7kV/pLmJhvO9ayQVr1Lu4drj8bj1dylYVRV7rZ3SF+3fzir9a5JLGwkAvOx/1599aqyaqNsPL1Hs44uI2+Grd1dkCnxCbBeCtpuhWik0F1VWLTSWkyZJkWPOPVWtN07tvnazmizpasEa9i9P7wukN3ElsYkd/MDvOhgJ8yGjPopVsKy8DkX6O+osNv/3W1qise1tASN9wAhstNvzl5TL+fWiaRl56TEk6n5VSYkY9VGs7k11fZ/nj+eWHV99884pep3x5efk2TpQZ/5xXRjYxNbhJFqNfyhJ3Gn535jkHk/La47U4B6TVxMa86SeMRbhnvHX9z/oinNPrf/jrzS/Obt78B70p59bfrt/kibib7Dgvbqbpvgjzda0DKemCNdv+F7ystU2MIxvycnr9OgfAMfxhQK3bs+bBNw2nhIB5+9b1lhpVQ+pfvD2o7Ai/qvz+QVN5gWwuNnYii5bM4HcA2sQ4sqFRxYNvn9PcGv0rZud8DIXYVG1KmVJsTGYrLfKqdZ/i3bbsnZxfnp+GN5qfhE/Oai4ZvWBTUrrIvj798OH06/zabHGG5JUQ2GCxST02n1zpvBLJsfvcn+up2MXx69Pz068lAxmVIj+es8ic/9g0DUnOz6eUg9xnJuUkl8RUPJlLIaXYg0DyIZOaF+8KuuPYH0UhUs9+Rl2q9qdUMGw3Mi65deuUbpnoV/Kb0sU7HWqa5q83VQ/cBJ2W6ojHHSrzZykc2/4XPCYLMTgDY3aqdedELzZsO4tHceUh9S/eO2IZ2bAq5C+QzcUm2mzr8Z3Y6AJOnDkuWRttyEa2KodbmKP00jS6JqFOo9k8+bwZresxTmz4CxpdI/RFjKYq+NqpXLBSCbqE0hXXdW1mtcfuighsrtiYnpnHM7bj9+cZoRsxjRaNkNj8fPqNtMBfTj9cvhU5sx75YCxBe26na1e+c0mM6eKQiMXngv/nIxtWoDirxkdvBbHZv/U3Hj1IIo1sVHto/MHS4oMJfTcntnbN+mwCWUvFfRg1C7YTbyiYxZ9u8E617tZRjxrpoE1DGlhcXh0r/1sgCQ1vGb1xoxBSgtqgRAdDxozt9GVl9LSeEy/mFG/7m0K6WYxs5EBms5bIkUeNZEdpbVw2W4tf/dY/9QK2n1nOzivOHXQ7mRXsrozA5ooNnTDhmwttup6/PJn0HJ0Hkq3KdBn9z52/TKP5klbq4hHn1u0UYpO0KGpN5pqXQIum8w03ZNFxRjWxaTKxqe1GsVFT7K9VbJyjKCGl2ORRm/3Qp/sHzzILthOXWrQ/SudC0loUiS11t45CYBxqFo+ObFRshmuVAdBr89H92dmDFzzrRaOQ6s15McSH8hFDJgxukCGdfkcU48WmHBjNktiQR9FR+5hARxxySC9g+0lHsqvGfFvzF6DbcztzXSPDkghsrtjwPJbKgpOasmfvO7IhCYmm4hlZE5t40LaDS3Q7lZDC8ag1SX6syWVs13pYmZsi6/r1vOxY+VA5snFTZz265toXeemmZRRlqpjFYDVA4pQ7RqbEwM0MhdbdOupRIxUbLn6zesuH48qqo1pVA1KvB3XKsz2dpAp5aiObluFCl9hkA44ygPFi40c2mWU2G2f2soPtu1ZkaKab9rO57M4rzh10O+0+cWS5BDZWbDrPl/IgpUQZaUVoxitUoGNkI9+ozPcosuncup3sGAfAMnNy+iEaYZdxrzXIwQeyHjbep+FRRexny56xS2z4rn4YM8XJMem7CwkpAnZyZY9mMcTYwgLYfMPJ5h+xHbTE1z0lchXiWC0osalRNaT+xQcGTLoy28vGAbzrHhLLMiQn7WLTWiQVHi82qo56CyfZDGux5yMwl6G+0y424YoxF6xY8Beg23M7dX9IXT6BjRUb+VajIxuec/paunSTpvNsxE1ORj7Y3qHbTPTsC+esjWwyiyJk7hzWHWNSIkveSdvMPUwfpBljLdjshdho3y1fscP39KyjJ5/U85YjmzAY4ocObv5R8miE3O06s3okfYoj88wC3bcwBaV4majjiWRp3JZIXRZknHCbUyMfZwypb/HeEWczUXbGKRcbURR5wCybcOtMtDZrcRViI5N4nTbpiQaZMfOZja/xDwjwl0UrOv6C4YfV6OKqXnF6OXJN3U6t7khbBYGNFZvsfKFdejoFf1tEgHv22KGvRcUmDYm6e9NNBwC52PTn4u7Z9C+23JwjxWa5QcDaVRDYWLExM176BUd+qnIVFOFzJQQm7dn71WDSkPaeyI9mstBGa8boglkAi+zyOKxU0EVMouyGENhYscmn0dLk1IaQR5hzCUzas8+NhjOsR0hyx2X23t25mV+BitjoDzzN5Njs/XxLo3LIvBzdhRpVHIU2ncAGi82mo0f8IAACILA7BCA2u9PWqCkIgAAIXBkBiM2VoYdjEAABENgdAhCb3Wlr1BQEQAAErowAxObK0MMxCIAACOwOAYjN7rQ1agoCIAACV0YAYnNl6OEYBEAABHaHwFaKDb8GZv6b0Hanlde3pvr2ERdhNdHlGL6zCpvVKCZzVPXuEwdfCD2CH2zTh7SKvTUMaRXV3HibuyI2Pa6ijW/LSgXoMjQ/d+XdsPCbeYVc0mV66495KRtfxTFjylbxNCope+eQ2pjbWHMzqCX9bHGkh5f3OZmjXiEP7IV7BV+xObg5egXfP1MlpP6Fqzn716h/zqqjnUrcSrGptOCOnhN0GdbFpqoc+iJqPWiLU0/U+eJsWkz+3qsK+9aktLyCzzK3seZm8Pbo1YxapezIkncnc7TkuNnc6OCHNscqgl+uzf416p9zuRFuorWNFhv+RhO/eIdlYumrOf1pH8udZEgLH3qobDB5wTOt/cx/b08ki7EhZW0vHEYKbW9mk0s4hhp9G5vaEc73HmtlX20bTZb1aYmz5QqhkM5PTNfcUrz00zTN908PP14cfbw4fHe3erxMzKIwQJKqmUSmZPa1TUP1zRHlqS4zR7EtxIK8v7Uo3mfR+5z8ZI60ZvRpIucKSVApNQXZdiqKtfnBlzZTirZGOkNtjHqNhOtJdzmLsaGh9r8QUmEtyzZ/fBvjCWvsdtc9xZoMRgtySaRzUlbSOq/nTJawlRPYYLFJPSE3uz3ZKMHuy1pLtObSnD9aAZqE6semaUhyfj7V60IuEzLMXVlyHi537864kXMy9H+x2NenlbXTq97LurSEZHzGzehPUnhXiucdsq1G7Hay4lz7aLu28dkvpDdHvzysHfRpWb2sq+i/Sqkaf1tOWy3xnxxxy0i7VYpTPjqJzCfJUirOvbzF2FqjZTvyIM0eCWTqz4u6cxw6OjUVIQt9ghdPWc5qc5iY4qZzGI2YVEoTnv0vhFpI35z+fPnhlSzjTtt8OZNx1YvkKAaXbcQzMKVToBydibh33ZOZXd7aXLGxbZ6fPbTvr7rK2VNrdjrLw1ehpvnL6YfLt9y9GFtsyF+c3dMPPhYtbp3HHDXv8sXVBEAlfadSsxnsE6Tsj0ZgWbJYj2Hw8cp1Jek28tr2p+/ekN78/vTT2tGYZrx5mm0XsC3Q3Zo2Z0cvKoesWkhwobj6sJ+d5L1bq0qFLC3mKDLMNvxZwQd9TH7PnTb+UGfwWda29sqC840cLxkfs4bU+0IITlxIJ28vL9/St0X5C1exy+J2NKP91Ea3aaLHcZWrcKia0xXDjhLYXLGhEyYoCm26TqM8mXqeE5V10tiP67A/0HAnfRWMF05IjHmLPjx08zzhlpnlvBXv3E5RG0Ils7L8jU0b1H9aRTbeazQcs5AhK05Z5i4aFMTm45t9H4rfyyJwzqmrq9dUNTdliFYzJprT2JKsnC+1jJ42ZXH1YT9F+WMD04acDJUed2WOYpX9hu+2wzEKIqJIpywf5cYN+bSSarIleD7sbVJSXlqt5J+xZLxk2E/Js++FoA6iYY7mbfq+2MSvjC6L21Ej9rOlRhxu4sne4rlqy2O7RmBzxYa/fel5qn1GqGJ5MrWcPTmSylle2vJO4oWT2/LZwh7HwZen9qdGtirenVHqHqimrSG53LSTqYX2LxUafB0pTv78cJoV5yxtt6bEdd9ptDwAXyM9qvVl2zaLZoj17Z+zetrUiqsP+9lBXrPFkFblKDmwW1WpMacW57UIg0SIjX7BB3/eCiWWxUPW/CMUTZdMaYuL9L0Q1L4zk41seDcj4fKrEftZrREnnmRfbKs5rSlsRwIbKzad50t5kFIyRYoMzEbtLKei5uthys3XzMnpB/9VJx2XLRtL7NRoIxRj87JT827NxUq0hmRz07bxE3frvUN20bArV5xMacy5G9of8IAAGc+gpUC5btJWKTEMKbQQR2dvwbXkLB2VKZFLuivH9VQg9lP6rDx2O8yNZFbkKNq3G3VflMMfsXtELFwQNlnMlinGXXmQUnpcXBLPh1N7yVDRkmfvCyGE5UOipwPsPRvedlmKncjCGMxqFE8xKpyO+T2DCZsFgY0VG+lIzVdxbn9qeven3VPoJuRYSsx5tJzlzmw60eTLa7s1tl4va1Lj2ulNzbvJ6Dp7l25C8jWKV4gk827QIIPpw+nX2qXG4mRf6qcZW52EMr0ffSbTJTSKjf/OT+I3X1PJRInd2SOkEnY/TqtXHUU/4k1qVSmuROxn7lr7qMkcxeYxGyZ2Beh4tCTG5uwdfNWRBGIOlS1rYg1XrctjyirP3heCK0sVDZbN02j8sE8mu1QsxiA2Io4QrbFsnhKRg3wKxflkn9NVFjuOwMaKjTtf5FyKze9qeNU7WaBXHc7V+9fee+WR1BxlrUG7i582kzlaEFlWebG2KcEvWHcUv3oCGys2/CU9PuZJl9Fl9+2Eq2JdvcKvKpid9zvZaTOZowFN2vtUXMfgB9QTWdeTwMaKTT6NFkfF68a59xW+boFvaTzUkaa/FZ42S3fkAtcqDGmlAafiIsEvHOeQOiHv5hDYYLHZHMiIFARAAAR2nQDEZtfPANQfBEAABCYgALGZADJcgAAIgMCuE4DY7PoZgPqDAAiAwAQEIDYTQIYLEAABENh1AhCbXT8DUH8QAAEQmIAAxGYCyHABAiAAArtOYIvFhl8K2f3uYW392q+o6V0t+TssNP/oz1XYrAYzmaOqd5/Iv9kYiTL+3sOWryZ6n3P2Fglpjuk5hx/ek/V+Xr0sFpr7/PmD2dmdz70BSnx/PHt//8Cn53uP7s/eH794fi1P77t/7duzY3Z0PDvTMpnNL++8oEj432xPM1U/g7Usno66V620J/Y4va+uiVvDXsOQWmNdxQGITfbapAR57gk9N0OyJVsDflSXFx22P5mjXmGNv8YiYVuhamKvQFKm8SElG+O2tMPl95bqKtqqKNKVG13h/v3Jox6uWBhmczSg1Y4EkDuq2hTJ6eOIi1ub1bq3xtR+wJ4NrbkqTRzPnNZCqz1QCWlBh/1r1D/ngiF1FIfY0Dsc7dfmCGtu88zNEE3JRpujLNviu5M5WjzUTgupU6Gt0EjVxE4za3WQXldKK2cnsYkd/cEsH5rwIaM9q6qJDET6OeovNs3eEz/YKus+qkKjT++hF+yo6CYt1L9G/XOurgKbLTb6Wnu7NGRYUuUjr088Zwkv4pq1AvVl8U9FyCRyktnXvOG9J+aIFtbGyxzx1xwtfRleB1kUp3VK6C3G9D5cWkqDPtmgyZm/cmUyR1oz+jTxcKUkqJSagpS+IlY/HbDmZJuKyyup4/t8wztX+T3VJrEsu6KQao74lHv5GR8aMHkbTB3MZJaMenw7DmiaJhcbO5FF01kPvv2yaWxiHHDQqOLBt89pbo3+FbNzvhqF2FRtSplSbExmP2+Wi413OnZv/uldnnUpJV5xbecdnZjmGO9yqMaGHpe3U9P68fz3Nryr0eRUUylJy7JN83bqsEBw36sjGbQ14tTY8fA1dl7POZb+IuU2WGxEafxy9+FS/56Q9LrsqSVM89szLZ7UlQXqGXnMEBugLWexsgi/vF/88rmgm+e6SAul0kkj58uJ/aS3FJs4NacG0VqjZTtSh8VnsZCXD4nj0HGKqUhhhxK4/raFWhOrxTVxmSGpzfS5mNjIyIZVgcUj2S3EJh5q6/Gd2OidHs784nks7DZY6vRODCtTErzSS6PaFh3ZPPm82SrExp9L5kIwp7dUMMtZfq90HNKOOyWjEZNKadKh0/LVtK4BLUJNkvMzfRGMRZJJ3fKHvjn92a27w3Yoi660kBypgfyz7IKYCEdnIu5d99z+cvc3V2ysrigTnRTm/T5i41vf71Ua0p9J1QwaSnbOedPmGonf1GNB2QgF1If95C7YK2RcnDhzu0JHWbxxt+jXPbR8jysWC/sNulw+nJ+HS5uJiPwUib5cvrfEkHLTvL+Y2OgIRnt8MwohJTC70bkOhmJCoQGu36dOP932N4V0sxjZyAErJJo1DKRUbFgpo0ayo1nMymZr8cccgzcGXEdZ1v4drikYZ+z8KaQnLYlNGJHE9adljG8uT1NHY7lpshVF/3L64fJtdnW4/MZO3NRuISbQBpeKizqFQ9WcrtjqdzZcbMLcReDkxzo9xCZrAd+26SClmz89kVKG2E4tOanPj4Nbysz5dDij35NCcvIkqzbp15T4KaVTtjS3xl3xNI5ilf2GvyjDMc/V7/H3L28jL0UF4vpuOhK1idXiMXGJIZFN/kITJmkv5A7/wmJDdh/dn509kMe9aBTCalG/4c+H/IRVt9hIpx+BlBvjxaYcGM2S2JAjGbel0VLpfEhKz+uITfrzjJLy0m2eY8moNZTi//jrXW2Rt+BIcrtrMVOSk7dJqJqoVdE32XE7tWhbasThajcl5Vpy1oyuLG3DxebNPs+YBTxDxSZvAN+2epS/X9vpLW1FzRAbp39OHnHo2atnZK24+rCfHeegZoshrcpRcmC3qv16fs1UKFsbcdvWhdDw5EI1MRapbCw1pIp9SlqG2FCnPNvTcUNwVBvZtAwXslFIObLxGuBrMl5s/MjGW23YrI6BsmOjdm3riwE5Meb37Jy7LN4SRThFo9a0XXFtYqNm3RWdi0c2suHd7Frxl4paNZ/VGnEi3eDVjoUKVHMaS1Nsbq7YNPxLhSN3z4Yedzn6yMMdOdr1gEClJenkSOONMHWaEsOQQsWGDNj25I49HKRj1paWkTatuJbzQe9OxOJ6jthPOSM1qzlLSrNlCmWv1cg6IGWl/VZHxmfarPui4/6I3cuvxmQt800ZCTYVjjXXRFvKbVtX7sDIkLyNuBfG0N834ZzsOutioWyDdGW2l40DeNc9JJZlSEbaxaa1SCo8XmxUHas/u1nong23tLu+ytYsU1KdsiamA5TdXbAmt99kmTk5/RAvW44m7mnmeWKTO/Tx0tMBH159w8bi/RuXpdjRuzkaQO7AXtz+mN/T8tN+brDYNPHalgfPWGPS82kvPyO9af9Rp2vICJ37L/qidH4Sv9dQzvDHT4alc84eoSdR7H6cNK06in7sl7JK8boGeFd6Bk7mKNIyGyZ2qRJRmp/Yfe0bSucnvBOuJm2OmGgiiZvzvZOZIs7ukKJ1txHn1uadda6U7GQzUXbGKRcbURR5wIz/TxNunYnWZiUCGYLY343KJF6nTXqiQUZLPrPxtVyx6X16V9tdqm0Opau4RoS/kMVvNZzDlNUrriY2Lpta8Inxa2hjnkbjpwzkkomhUTG3o45TyMayzLqn72JSh7jquc+ZLEy3tdliswAn7cUXMNGvaM2RO4nCN65+1jpyTeaoI4Y+h7LK9ymy6jxXHxKNLUw3HSqci01/Dm4arX+x5eZcSGzyUDbl9M7jxn4ksLNiEwlcxQZ9SY/fWOT7//lK4pjM0YDor75nL4K9+pD2nsiPZrLQRmvG6IJZAIvs8jisVNBFTGZl1/H0zkLEbiIAsUksptziOaEwGWSFZ+kxLN3RwivMX33PXkBew5A0RrnjMv/daJo/fFbERn/gaSbHZu+zYsvalZtAdBdqWRZb7Cxyei98JrfEhOQWAhCbFjBIBgEQAAEQWB4BiM3yWMISCIAACIBACwGITQsYJIMACIAACCyPAMRmeSxhCQRAAARAoIUAxKYFDJJBAARAAASWRwBiszyWsAQCIAACINBCAGLTAgbJIAACIAACyyNwhWLz6bs3tOgZ/9P1cZdXMVgCARAAARBYHwJXKDYCQSQHYrM+pwQiAQEQAIHlE4DYLJ8pLIIACIAACGQEJhMbM2nmFqEpRzb8wvYwvXb47q4E3FY8qw52QQAEQAAE1pHANGJjFcWuNNU0jT2ku06NNLGyKuI6AkVMIAACIAACJYFJxIbXNPv96afinpc1u6eh1MTmWatpDQAAEaNJREFUorIkWktxNYNPEAABEACBNSYwidjEpaXC5NjRx4s2sWkaWW3TTqN1FV9jtAgNBEAABEBACUwiNn5ko67lMxvZpINhzc2Xn4n8xJFNyoEtEAABEACBDSEwidjkN2Ysm1axCUMcWuy5PY+1hG0QAAEQAIF1JTCN2DRNY58xO/pIEuJTaN7sXp6YnhTwmak4/kAABEAABDaGwGRiszFEECgIgAAIgMDSCUBslo4UBkEABEAABHICEJucCPZBAARAAASWTgBis3SkMAgCIAACIJATgNjkRLAPAiAAAiCwdAIQm6UjhUEQAAEQAIGcAMQmJ4J9EAABEACBpROA2CwdKQyCAAiAAAjkBCA2ORHsgwAIgAAILJ0AxGbpSGEQBEAABEAgJ7ALYpOtoJMjmL/Pr53+5WHDiyPE9dzayt394eDZ6zuHe23Hl5B+47s7z14fyL/jr4LBamKXs70bj9XI4658TVajwY7YeDBC28N4doaGgyAAAhtCAGLTo6G0c+QXUd97NacE96oHUQOappHe2abMMdHvcNVsNbFm75PDnw6evb4dVkKt5YhpZY1GVKoiNv14xjCwAQIgsMEEIDY9Go+WSKABzdjOsbcA9IjFZKmarSaaQropw5ofrun+4M++jtSwEZtFeapJfIIACGwOgY0WG1l64OjjxdHH9H5okQROvDjiVXBkGm3/3RtJjPNg9k3Sc8crZZPK9/04nfVMRzBudstMVWnO1sEEGfzpxiHNwtG/x9990jQyhRWKmP6awql299XEMvimJja2RjIOE2uuRmqrdGQyp1lEa5NmF7U4PkEABHaLwOaKjV3kJt2VkSXXfnloWzGICifGnLwRJCps2zLztrljlS6V56N+unFDi7T1wnOn0UK/zKONYH8lYnPtWG/VOP376rZGmM+wlTUqpc7m4YqQQPJGEJ6wrZTwCQIgsFsENlZs/OqffOtel8MxoxxuzCgwuqzOm/14j1pamyVq0Jdu6jpVYOx22QtXU6onGXfHOu756jYNblYiNuy8NrKJUWXCYIUk5vGJXnE5+OOGVU1n6jKb0Q42QAAEdoLAxooN37SnCbT0T8UmX1qtIjbZAGi42HBXK8LgutSqtPh+ufW8cmLDYjCt2GQjnjTlVY3fJ2ZlaRrw2OsZxKa14XEABHaBwMaKjR/ZaFPZyTFNkyVBgwJphqeHHy+O4mybPNMcC/TYkK7WTUNpKd8LU2qZonndpxObMDiY7J6NmzrLhKEav0/0IxupFsTGNS92QGC3CWys2DT2nk1qQ5aNpCJ8oDKyCetP23s2+Xgo2axscd+qE0TZcd8L80GZE+Mb/llmu2vEJnX9od/faxo2Yu+xVxz1FrbiAQGjFiIS5mZ+H0e1PKkWZfC24tgGARDYfgKbKzZ6AyZOo6laiN6E6TVKrIpN0/DYyGQb1tih6w9PjskPVlgYYgr/tFONmkN6V0YPxU+Tx/4CJs5Q3b5LTml2y+fkOauWxGg83/DDDjqaatThqNW7PjgXq8/VDLrF1dHg80iwDwIgsAsENlpsrq6B/H0a7lK7f4TfJ1SWkFYp6mMBeUAABEBgTQlAbMY0TDYs4DEBxGYMSZQBARDYEQIQm5ENnSadaOJIfoA50pQWw8hGSeATBEBg6whAbLauSVEhEAABEFg/AhCb9WsTRAQCIAACW0cAYrN1TYoKgQAIgMD6EYDYrF+bICIQAAEQ2DoCEJuta1JUCARAAATWjwDEZv3aBBGBAAiAwNYRgNhsXZOiQiAAAiCwfgR2R2z0FZzr1waICARAAAS2nsCOic2FXZGz/irPepPLOyUPdHmxeiakggAIgAAI1AnsjtiU9e8rNultkhCbkiJSQAAEQKAHgY0WG1ELXj+NFwuQJdE+htc/y9HDJixGIMushZFNyBnfGH1xpKUKZjSmobfR8PtpMLIp+CABBEAABHoQ2FyxseOStIhAXIIzbigEm1/SyhTNW/uE2NSoIA0EQAAEehHYWLHxK3XyGjb3uMYsIW8Of88HK6W0lCldyCA2XXRwDARAAAQ6CWys2Dy8F9Y9S1NhIjZxVTT7LECjk2k2EWLTeWrgIAiAAAgsj8DGio0f2RggLCEv7/2CkY2Bgk0QAAEQuFoCGys24ba/HakQSZ5PO3x3t2l46PPLw4i3Mo5JmWOu9g1Mo7WzwREQAAEQmENgc8WmaRp+LiBOo738jMXj6Penn3KlRV2O8mwXRx/f7CsVYyE8w6ZH0ievaUYrpMV/x+kgtkAABEAABHoQ2Gix6VE/ZAEBEAABEFgDAhCbNWgEhAACIAAC204AYrPtLYz6gQAIgMAaEIDYrEEjIAQQAAEQ2HYCEJttb2HUDwRAAATWgADEZg0aASGAAAiAwLYTgNhsewujfiAAAiCwBgQgNmvQCAgBBEAABLadAMRm21sY9QMBEACBNSAAsVmDRkAIIAACILDtBCYVG7Nk2aGC5RfG8NJnmoJPEAABEACBbSMwodjwe5qLBTHl7WT5+zS3DTPqAwIgAAK7TWA6sSmWztxt8Kg9CIAACOwSgSsUm/BWZl4DDSObXTrpUFcQAIHdIzCJ2JSraqb3+VeWmdm9VkCNQQAEQGDLCUwiNsywZRoNYrPlZxiqBwIgAAJN00BscBqAAAiAAAisnADEZuWI4QAEQAAEQABig3MABEAABEBg5QSuUGzkFzZH/DQa//9mf+XVhQMQAAEQAIGrIDCd2FxF7eATBEAABEBgLQhAbNaiGRAECIAACGw3AYjNdrcvagcCIAACa0EAYrMWzYAgQAAEQGC7CUBstrt9UTsQAAEQWAsCEJu1aAYEAQIgAALbTQBis93ti9qBAAiAwFoQgNisRTMgCBAAARDYbgIQm+1uX9QOBEAABNaCAMRmLZoBQYAACIDAdhPoKTZY6Gy7TwPUDgRAAARWS6Cn2EgQWHtmtY0B6yAAAiCwrQQgNtvasqgXCIAACKwRgarYmEmzN/vfp2jLkY19c/Phu7uSta14MoQtEAABEACBnSJQio1VFNaSl58pEXuoaRredWqkiRf3XlGZrLiawScIgAAIgMCOESjE5u7+7xdHvz/9VDi8enn08eLef/7nf/JuTWwujn55aJjVipvD2AQBEAABENhFAoXYPLyXVjO7kJXN2sSmaVhaND9Po9WK7yJX1BkEQAAEQMAQKMTGD01MzmyKzB35/ukhSc7Lz0R+4sDIZcIOCIAACIDArhIoxEbuxISbLhmVbBrNHJUhDt3dac9jsmMTBEAABEBgpwiUYqM39sMcGo9X5FZ/TKGNe+H+f0xMTwrYR9Sk+E4hRWVBAARAAARyAlWxyTNhHwRAAARAAAQWIQCxWYQeyoIACIAACPQiALHphQmZQAAEQAAEFiEAsVmEHsqCAAiAAAj0IgCx6YUJmUAABEAABBYhALFZhB7KggAIgAAI9CIAsemFCZlAAARAAAQWIQCxWYQeyoIACIAACPQiALHphQmZQAAEQAAEFiEAsVmEHsqCAAiAAAj0IrBuYrPwEjj82ulfHja8OEJcz41ZfP78wezszueeCyW+P569v3/g0/O9R/dn749fPL+Wp/fdv/bt2TE7Op6daZnM5pd3XlAk/G+2p5mqn8HayHhufHfn2esD+Xf8VdXBQol3fzh49vrO4UI25hQOLropzbFhD3ecNjYbtkEABMYS2Fqx4RdRyxpuTaOKIl250RXu35886kGPhWE2RwNa7UgAuaOqTZGcPo64eG6zNYTigEjOJovNwdzge9dRxcadNgUyJIAACIwmsHViQ++fpgFN6jViR38wy4cmfMhoz2iMcwrKQKSfo/5i0+w9WWSw1bsjnlO58vAEI5vSaTWldx3L06ZqD4kgAAJjCUwmNrL0AK/Glt4PLZIgS7TJ8qAyjbb/7o0kxnkw+yZpHa/0rPPBTGbJqMfPxgG52NiJLJrOevDtl01jE+OAg0YVD759TnNr9K+YnfOxFWJTtSllSrExmf28WT+x4a6/MmmWdcS8e+dw75PDnzjzTzducECSjefc7hzqtFXVpk2kabSvbj97ffD4u0+UxbXj1wfPdKf8zB3t3XhMc32375owHjeNyeZGNtY7OQ3FQ8U5/mAqz1mGghQQAIGlE5hGbOwiN+mujCy55laV1rUMODHm5I0gUWF7AAgZ2bAqsHiYornYxENtPb4TG73Tw5lfPI+F3QZLnd6JYWVKgld6aVTboiObJ5836yM2X93WuSZRkdDhNtpr61HpxO88/okURTr0Y5+H+2guXrPJR4Mahe2G1UVFq2HtOXZw0k7wyDeQkiMRjB+uBeX4Id0xs/m1LkkLo90sW0fOWAQbIAACKyEwidj41T/51r0uh2NGOVy/KDC6rM6b/Ubn0wUAS9TAm89Gb9wohJSgNijRwZBBbjv9pmlcv0+dfrrtbwrpZjGykQOZzVoiRx41kh3N1GrDZmvxxxxuQzUgJGYdseyGgQj38o8b1qdOtVCbrCsqBpoYBIzHQ96Ui6tp2h1xVHce02AryaRqRhrZSPDPNIBoPqtjLFjmjEWwAQIgsBICk4gNqwWtG53+qdjQ4p72ryI22QBojNiQh0f3Z2cP5HEvGoWwWtRv+PMhP2FVDDic2Einb6uRbY8Xm3JgNEtiQ15ER9NoKfPcyPBCnz2zD4llHXG2y3ZYQlJZmpLioUmWfucwDkG4WBQbGZHESS0zpZaFmRmMjlSHXiddkZJFtDr7x9FGR0W2ZFAexos5s4CwCwIgsGQCk4iNH9loDezkmKbJNFpQIM3w9PDjxVGcbZNnmmOBvhvUKc/2wg0Y7a9rI5uW4UI2CnFikw04ypDGi40f2WSW2WyccMsO8q6bOksawMeyjjjbTcXjyCY4qNlsE5umIac/3bhLD1u7oUkwZm3mjugYR3X7mJ6ldsVr0bItiUQzt2ZrGr2p48z6qLAHAiCwPAKTiE1j79mk2Fk2korwgcrIJqw/be/Z5OOhZLN1i3RltpeNA3jXPSSWZUjm2sWmtUgqPF5sVB31znyySd3l3KfRzORV6IXTz1+yjjjbFUe1xKpNo0B8byYNocLuQffMVc1RI7d5ePDhpulUhPLhDsdsImmsBUeukrM8jhQQAIElEphGbPQGTJxGU7UQvQnTa5RYFZum4bGRyTaEQDYTZWeccrERRZEHzPj/NOHWmWht1kIrxEYm8Tpt0hMNMgLzmY2v+WITetvwLBb1+yQ2PMSxj2nR5Fi9u88z8zgg6sfr23fVpg4UeAgSEwmGTJFV7t5npHxUYplGRe6huDye8OtRX9b5MocoeLPLZasqnkWGXRAAgcUJTCY2i4e6kAXq7k03HWzlYtPfhZtG619suTn7iM1yPY6xxkON4tb9GEsoAwIgsLkEdkVs9p7Ij2aylhqtGaMLZgEsssvjsFJBFzG5/LI8YHJDjeX7gEUQAIH1J7ArYtPaEnLHZf670TIDFbHRH3iaybHZ+6zYsnZlXo7uQi3L4grs6Gxb/CnPCnzAJAiAwIYQ2Hmx2ZB2QpggAAIgsNEEIDYb3XwIHgRAAAQ2gwDEZjPaCVGCAAiAwEYTgNhsdPMheBAAARDYDAIQm81oJ0QJAiAAAhtNAGKz0c2H4EEABEBgMwhAbDajnRAlCIAACGw0gVaxkXct8xtiDv/jP/6DK6lvxtzoGiN4EAABEACByQm0iI28i0zfYKZRsdhcDFwoUwvjEwRAAARAYGcJ1MUmW0JmZ+mg4iAAAiAAAksh0FNsZI0AWf0MI5ulkIcREAABENghAoXYlKtqpsm0+rI0O0QLVQUBEAABEBhFoBAbttIyjQaxGcUYhUAABEBg5wlAbHb+FAAAEAABEFg9AYjN6hnDAwiAAAjsPAGIzc6fAgAAAiAAAqsn0FNs5Bc28jQa//9mf/WxwQMIgAAIgMCWEKiLzZZUDtUAARAAARBYDwIQm/VoB0QBAiAAAltNAGKz1c2LyoEACIDAehCA2KxHOyAKEAABENhqAhCbrW5eVA4EQAAE1oNALjaXtb/1CBVRgAAIgAAIbCqB/w/IeLRRwVZOoQAAAABJRU5ErkJggg==;" vertex="1" parent="1">
          <mxGeometry x="130" y="560" width="548" height="383" as="geometry" />
        </mxCell>
      </root>
    </mxGraphModel>
  </diagram>
</mxfile>
